<svg width="128" height="128" viewBox="0 0 128 128" fill="none" xmlns="http://www.w3.org/2000/svg">
<g clip-path="url(#clip0_746_980)">
<path d="M128 76.5254L127.957 93.6417L68.1691 128L68.2115 110.884L128 76.5254Z" fill="#593C40"/>
<path d="M68.2115 110.884L68.1691 128L8 93.6417L8.04239 76.5254L68.2115 110.884Z" fill="#473438"/>
<path d="M128 76.5249L68.212 110.883L8.04239 76.5254L67.8304 42.1666L128 76.5249Z" fill="#8C6A5E"/>
<path d="M128 59.3588L127.915 76.4331L68.1691 110.833L68.2115 93.7172L128 59.3588Z" fill="#42A94E"/>
<path d="M68.2115 93.7172L68.1691 110.833L8 76.4331L8.0424 59.3588L68.2115 93.7172Z" fill="#4C793E"/>
<path d="M128 59.3583L68.212 93.7167L8.0424 59.3588L67.8304 25L128 59.3583Z" fill="#80C74F"/>
<g clip-path="url(#clip1_746_980)">
<path d="M23.466 53.7145L19.9067 51.6817V47.2158L23.4345 49.2486L23.466 53.7145Z" fill="#A0A9AA"/>
<path d="M23.4345 49.2484L19.9067 47.2156L23.8755 44.9673L27.4348 47.0001L23.4345 49.2484Z" fill="white"/>
<path d="M27.4348 51.4659L23.4661 53.7143L23.4346 49.2484L27.4348 47V51.4659Z" fill="#DCE9EA"/>
<path d="M7.62275 94.0002L4.09497 91.9674L4.06348 87.5015L7.62275 89.5342V94.0002Z" fill="#A0A9AA"/>
<path d="M7.62275 89.534L4.06348 87.5013L20.0015 78.5078L23.5292 80.5406L7.62275 89.534Z" fill="white"/>
<path d="M7.62256 93.9999V89.534L23.5291 80.5405L23.5606 85.0065L7.62256 93.9999Z" fill="#DCE9EA"/>
<path d="M23.5292 80.5409L20.0015 78.5081L19.9385 65.1104L23.4978 67.1123L23.5292 80.5409Z" fill="#A0A9AA"/>
<path d="M23.4978 67.1121L19.9385 65.1102L23.9387 62.8618L27.4665 64.8638L23.4978 67.1121Z" fill="white"/>
<path d="M27.5293 78.2923L23.5291 80.5407L23.4976 67.1121L27.4663 64.8638L27.5293 78.2923Z" fill="#DCE9EA"/>
<path d="M7.59101 76.1056L4.03174 74.1037V69.6069L7.55952 71.6397L7.59101 76.1056Z" fill="#A0A9AA"/>
<path d="M7.55952 71.6395L4.03174 69.6067L19.9382 60.644L23.4975 62.646L7.55952 71.6395Z" fill="white"/>
<path d="M23.4976 67.1119L7.59107 76.1054L7.55957 71.6394L23.4976 62.646V67.1119Z" fill="#DCE9EA"/>
<path d="M3.59077 73.8876L0.031498 71.8548L0 58.457L3.55928 60.459L3.59077 73.8876Z" fill="#A0A9AA"/>
<path d="M3.59058 73.8879L3.55908 60.4593L7.52783 58.2109L7.55933 71.6395L3.59058 73.8879Z" fill="#DCE9EA"/>
<path d="M3.55928 60.4593L0 58.4573L3.96875 56.209L7.52802 58.211L3.55928 60.4593Z" fill="white"/>
<path d="M7.52803 58.2111L3.96875 56.2091V51.7432L7.52803 53.7451V58.2111Z" fill="#A0A9AA"/>
<path d="M7.52803 53.7449L3.96875 51.743L19.8752 42.7495L23.4345 44.7823L7.52803 53.7449Z" fill="white"/>
<path d="M7.52783 53.7449L23.4343 44.7822V49.2481L7.52783 58.2108V53.7449Z" fill="#DCE9EA"/>
<path d="M3.62226 87.2855L0.0629883 85.2835L4.06324 83.0352L7.62251 85.0371L3.62226 87.2855Z" fill="white"/>
<path d="M3.65376 91.7824L0.0944863 89.7496L0.0629883 85.2837L3.62226 87.2857L3.65376 91.7824Z" fill="#A0A9AA"/>
<path d="M3.62207 87.2855L7.62232 85.0371V89.5338L3.65357 91.7822L3.62207 87.2855Z" fill="#DCE9EA"/>
<path d="M47.3732 53.653L43.814 51.6202V47.1543L47.3732 49.1871V53.653Z" fill="#A0A9AA"/>
<path d="M47.3732 49.1869L43.814 47.1541L47.7827 44.9058L51.342 46.9385L47.3732 49.1869Z" fill="white"/>
<path d="M51.3418 51.4044L47.373 53.6528V49.1868L51.3418 46.9385V51.4044Z" fill="#DCE9EA"/>
<path d="M35.4982 78.2613L31.939 76.2594V71.7935L35.4667 73.7954L35.4982 78.2613Z" fill="#A0A9AA"/>
<path d="M47.436 71.5162L35.4983 78.2613L35.4668 73.7954L47.4045 67.0503L47.436 71.5162Z" fill="#DCE9EA"/>
<path d="M35.4667 73.7954L31.939 71.7934L43.8767 65.0483L47.4045 67.0503L35.4667 73.7954Z" fill="white"/>
<path d="M31.435 58.1493L27.9072 56.1473L31.876 53.8989L35.4353 55.9009L31.435 58.1493Z" fill="white"/>
<path d="M31.498 76.0439L27.9387 74.0112L27.9072 56.1475L31.435 58.1494L31.498 76.0439Z" fill="#A0A9AA"/>
<path d="M31.4981 76.0437L31.4351 58.1492L35.4353 55.9009L35.4668 73.7954L31.4981 76.0437Z" fill="#DCE9EA"/>
<path d="M35.4038 51.435L31.876 49.4331L43.8137 42.688L47.3415 44.69L35.4038 51.435Z" fill="white"/>
<path d="M35.4353 55.901L31.876 53.899V49.4331L35.4038 51.4351L35.4353 55.901Z" fill="#A0A9AA"/>
<path d="M35.4038 51.435L47.3416 44.6899L47.3731 49.1867L35.4353 55.9009L35.4038 51.435Z" fill="#DCE9EA"/>
<path d="M47.4045 67.0504L43.8767 65.0484L43.8452 60.5825L47.4045 62.5845V67.0504Z" fill="#A0A9AA"/>
<path d="M47.4045 62.5843L43.8452 60.5823L47.8455 58.334L51.3732 60.336L47.4045 62.5843Z" fill="white"/>
<path d="M51.373 60.3359L51.4045 64.8019L47.4043 67.0502V62.5843L51.373 60.3359Z" fill="#DCE9EA"/>
<path d="M59.3112 42.4413L55.752 40.4085L59.7207 38.1602L63.28 40.1929L59.3112 42.4413Z" fill="white"/>
<path d="M63.28 40.193L59.7207 38.1603V33.6943L63.28 35.7271V40.193Z" fill="#A0A9AA"/>
<path d="M63.28 35.7272L59.7207 33.6945L67.6897 29.1978L71.2175 31.2305L63.28 35.7272Z" fill="white"/>
<path d="M55.3107 40.1932L51.7515 38.1912L55.7517 35.9429L59.2795 37.9756L55.3107 40.1932Z" fill="white"/>
<path d="M55.3737 67.0505L51.846 65.0177L51.7515 38.1914L55.3107 40.1934L55.3737 67.0505Z" fill="#A0A9AA"/>
<path d="M71.217 31.2305L71.2485 35.6964L63.2795 40.1931V44.659L59.3108 46.9074L59.3738 64.8019L55.3735 67.0503L55.3105 40.1931L59.2793 37.9756L59.3108 42.4415L63.2795 40.1931V35.7272L71.217 31.2305Z" fill="#DCE9EA"/>
<path d="M91.1872 46.8156L87.6594 44.8136L87.6279 40.3169L91.1872 42.3497V46.8156Z" fill="#A0A9AA"/>
<path d="M87.2185 44.5978L83.6592 42.565V38.0991L87.187 40.1319L87.2185 44.5978Z" fill="#A0A9AA"/>
<path d="M87.187 40.1317L83.6592 38.0989L87.6279 35.8506L91.1872 37.8834L87.187 40.1317Z" fill="white"/>
<path d="M79.2492 53.5607L75.7214 51.5279L75.6899 47.062L79.2492 49.0948V53.5607Z" fill="#A0A9AA"/>
<path d="M79.2492 49.0944L75.6899 47.0617L83.6589 42.5649L87.2182 44.5977L79.2492 49.0944Z" fill="white"/>
<path d="M91.1237 19.9891L87.5645 17.9871L91.5647 15.7388L95.0925 17.7407L91.1237 19.9891Z" fill="white"/>
<path d="M91.1867 37.8838L87.6275 35.851L87.5645 17.9873L91.1237 19.9893L91.1867 37.8838Z" fill="#A0A9AA"/>
<path d="M75.2805 51.3429L71.7212 49.3101L71.6582 26.9497L75.2175 28.9825L75.2805 51.3429Z" fill="#A0A9AA"/>
<path d="M95.0925 17.7407L95.187 44.5671L91.1868 46.8154V42.3495L87.218 44.5979V49.0638L79.249 53.5605V49.0946L75.2803 51.3429L75.2173 28.9825L79.186 26.7342L79.249 49.0946L87.218 44.5979L87.1865 40.1319L91.1868 37.8836L91.1238 19.9891L95.0925 17.7407Z" fill="#DCE9EA"/>
<path d="M75.2175 28.9828L71.6582 26.95L75.627 24.7017L79.1862 26.7344L75.2175 28.9828Z" fill="white"/>
<path d="M122.968 6.4989L119.409 4.46614L123.409 2.21777L126.937 4.25054L122.968 6.4989Z" fill="white"/>
<path d="M123.031 28.8595L119.472 26.8267L119.409 4.46631L122.968 6.49907L123.031 28.8595Z" fill="#A0A9AA"/>
<path d="M122.968 6.49885L126.937 4.25049L127 26.6109L123.031 28.8593L122.968 6.49885Z" fill="#DCE9EA"/>
<path d="M111.094 35.5733L107.535 33.5714L107.472 11.2109L111.031 13.2437L111.094 35.5733Z" fill="#A0A9AA"/>
<path d="M99.093 15.4921L95.5337 13.4902L119.409 0L122.968 2.03277L99.093 15.4921Z" fill="white"/>
<path d="M99.156 42.3185L95.5967 40.3166L95.5337 13.4902L99.093 15.4922L99.156 42.3185Z" fill="#A0A9AA"/>
<path d="M99.0928 15.4921L122.968 2.03271V6.49864L114.999 10.9954L115.062 33.325L111.094 35.5733L111.031 13.2437L103.062 17.7096L103.125 40.0701L99.1558 42.3184L99.0928 15.4921Z" fill="#DCE9EA"/>
</g>
</g>
<defs>
<clipPath id="clip0_746_980">
<rect width="128" height="128" fill="white"/>
</clipPath>
<clipPath id="clip1_746_980">
<rect width="127" height="94" fill="white"/>
</clipPath>
</defs>
</svg>
